<svg xmlns="http://www.w3.org/2000/svg" width="192" height="192" viewBox="0 0 192 192">
  <circle cx="96" cy="96" r="90" fill="#0A0A0A" stroke="#D4AF37" stroke-width="4"/>
  <path d="M125.5 58.5a27 27 0 0 1-29.3 26.9c-6.5-.5-13.6.4-17.7 5.4L35.6 143a15.3 15.3 0 1 1-21.5-21.5l52.1-42.9c5-4.1 6-11.2 5.4-17.7A27 27 0 0 1 109.6 23L89.9 42.7a18 18 0 0 0 13.5 13.5l19.7-19.7c1.5 3.4 2.4 7.2 2.4 11.1Z" fill="none" stroke="#D4AF37" stroke-width="6" stroke-linecap="round" stroke-linejoin="round" transform="translate(28,20) scale(0.85)"/>
</svg>
